<?xml version="1.0" encoding="utf-8"?>
<!-- Generator: Adobe Illustrator 21.1.0, SVG Export Plug-In . SVG Version: 6.00 Build 0)  -->
<svg version="1.1" id="Layer_1" xmlns="http://www.w3.org/2000/svg" xmlns:xlink="http://www.w3.org/1999/xlink" x="0px" y="0px"
	 viewBox="0 0 289.9 161.7" style="enable-background:new 0 0 289.9 161.7;" xml:space="preserve">
<style type="text/css">
	.st0{fill:#CC0033;}
	.st1{fill:#FFFFFF;}
</style>
<g>
	<path class="st0" d="M253.4,105.8h-0.5c-0.4,0-0.7,0.3-0.7,0.7v2.4c0,0.4,0.3,0.7,0.7,0.7h0.5c0.4,0,0.7-0.3,0.7-0.7v-2.4
		C254.1,106.1,253.8,105.8,253.4,105.8z"/>
	<path class="st0" d="M270.9,83.4h-2c-0.2,0-0.4,0.2-0.4,0.4v0.8c0,0.2,0.2,0.4,0.4,0.4h2c0.2,0,0.4-0.2,0.4-0.4v-0.8
		C271.2,83.6,271.1,83.4,270.9,83.4z"/>
	<path class="st0" d="M147.5,70.7c-1.3-1.3-3.2-2.1-5.4-2.1c-2.5,0-4.7,1-6,2.7c-1.2,1.6-1.8,3.2-1.8,5.5l0,0.2h15.4l0-0.2
		C149.6,74.3,148.9,72.2,147.5,70.7z"/>
	<path class="st0" d="M256.5,66.8h7.2c0.4,0,0.7-0.3,0.7-0.7v-0.6c0-0.4-0.3-0.7-0.7-0.7h-7.2c-0.4,0-0.7,0.3-0.7,0.7v0.6
		C255.8,66.5,256.1,66.8,256.5,66.8z"/>
	<path class="st0" d="M219.8,72.3h4.3c-0.1-0.2-0.2-0.3-0.3-0.5c-1.4-1.8-3.4-2.8-5.8-2.8c-6.7,0-8.1,6.2-8.1,11.4
		c0,5.1,1.4,11.3,8.1,11.3c2.3,0,4.3-1,5.8-2.8c1.3-1.7,2.1-4.1,2.2-7.3h-0.5c-0.5,0-0.9-0.4-0.9-0.9V77c0-0.5-0.4-0.9-0.9-0.9h-3.8
		c-0.5,0-0.9-0.4-0.9-0.9v-2C218.9,72.7,219.3,72.3,219.8,72.3z"/>
	<path class="st0" d="M90.4,76.9c-0.1-2.6-0.8-4.7-2.2-6.2c-1.3-1.3-3.2-2.1-5.4-2.1c-2.5,0-4.7,1-6,2.7c-1.2,1.6-1.8,3.2-1.8,5.5
		l0,0.2h15.4L90.4,76.9z"/>
	<path class="st0" d="M179.8,71.5c-2.3,2.5-2.5,6.2-2.5,8.8s0.3,6.4,2.5,8.8c1.4,1.4,3.3,2.3,5.4,2.3c2.1,0,4.1-0.8,5.4-2.3
		c2.3-2.5,2.5-6.2,2.5-8.8s-0.3-6.4-2.5-8.8c-1.4-1.4-3.3-2.3-5.4-2.3C183.2,69.2,181.2,70,179.8,71.5z"/>
	<path class="st0" d="M50.7,69c-2.3,0-4.3,1-5.8,2.8c-1.5,2-2.2,4.7-2.2,8.5c0,3.8,0.7,6.6,2.2,8.6c1.4,1.8,3.4,2.8,5.8,2.8
		c6.7,0,8.1-6.2,8.1-11.4C58.7,75.1,57.3,69,50.7,69z"/>
	<path class="st0" d="M245.1,101.8h-2.9c-0.5,0-0.8-0.4-0.8-0.8v-3c0-0.2-0.1-0.4-0.2-0.6l-1.1-1.1c-0.3-0.3-0.3-0.9,0-1.2l1.1-1.1
		c0.2-0.2,0.4-0.2,0.6-0.2h6.8c0.5,0,0.8-0.4,0.8-0.8v-9.4c0-0.5,0.4-0.8,0.8-0.8h9c0.5,0,0.8-0.4,0.8-0.8v-0.8
		c0-0.5,0.4-0.8,0.8-0.8h5.1c0.5,0,0.8-0.4,0.8-0.8v-3.7c0-0.5-0.4-0.8-0.8-0.8h-4.2c-0.2,0-0.5-0.1-0.6-0.3l-1.6-1.7
		c0,0-1-0.3-1,1.1v0c0,0.5-0.4,0.8-0.8,0.8h-6.9c-0.5,0-0.8-0.4-0.8-0.8v-1.3c0-0.5,0.4-0.8,0.8-0.8h3.7c0.5,0,0.8-0.4,0.8-0.8v-1.3
		c0-0.5-0.4-0.8-0.8-0.8h-8.9c-0.5,0-0.8-0.4-0.8-0.8v-4.1c0-0.2,0.1-0.4,0.2-0.5l1.3-1.7c0.2-0.2,0.4-0.3,0.7-0.3h4.4
		c0.2,0,0.5-0.1,0.6-0.3l1.8-2c0.1-0.2,0.2-0.4,0.2-0.6l0-3.8h-6.1c-0.2,0-0.5,0.1-0.6,0.3l-1.8,1.9c-0.2,0.2-0.4,0.3-0.6,0.3
		l-42.8,0c-0.5,0-0.8-0.4-0.8-0.8v-1.1c0-0.5,0.4-0.8,0.8-0.8h18.3c0.1,0,0.2,0,0.4-0.1l1.3-0.6c0.1-0.1,0.2-0.1,0.4-0.1h7.1
		c0.5,0,0.9-0.4,0.9-0.9v-1.1H167v36c0,2.2,0.6,3.5,3.5,3.5c0.4,0,0.7,0,0.9,0c0.1,0,0.2,0,0.3,0v6.6l-0.5,0.1
		c-1.1,0.2-1.5,0.3-2.9,0.3c-6.1,0-9.3-3.1-9.3-9.1V51.3h-12.4c-0.2,0-0.4-0.1-0.5-0.2l-1.2-1c-0.2-0.1-0.3-0.2-0.5-0.2h-78v47.5
		h-6.8l-0.6-4.1l-0.3,0.4c-1.8,2.8-5.4,4.5-9.6,4.5c-4,0-6.7-1.6-8.4-2.9c-4-3.3-6.1-8.3-6.1-14.9c0-6.8,2.1-11.9,6.1-15.2
		c2.3-1.8,5.1-2.7,8.4-2.7c4.7,0,7.7,1.6,8.9,3.2l0.4,0.4V49.8h-25c-1.7,0-3,1.4-3,3v44.5c0,0.2,0.1,0.4,0.2,0.6l5.9,5.9
		c0.2,0.2,0.4,0.2,0.6,0.2h3.5c0.5,0,0.8,0.4,0.8,0.8v3.5c0,0.2,0.1,0.4,0.2,0.6l1.8,1.8c0.3,0.3,0.3,0.9,0,1.2l-1.1,1.1
		c-0.5,0.5-0.2,1.4,0.6,1.4h59.7c0.5,0,0.9-0.1,1.3-0.3l7.5-3.1c0.4-0.2,0.9-0.3,1.3-0.3l43.5,0c0,0,0,0,0,0h42v0h4.1V69h-2.2
		c-0.3,0-0.6,0.3-0.6,0.6v1.7c1.2,2.6,1.8,5.5,1.8,9.1c0,5.3-1.2,9.1-4,12.6c-2.1,2.6-6.4,5.3-12,5.3c-5.6,0-9.9-2.7-12-5.3
		c-2.8-3.5-4-7.3-4-12.6c0-5.3,1.2-9.1,4-12.6c2.1-2.6,6.4-5.3,12-5.3c5.6,0,9.9,2.7,12,5.3c0,0,0.1,0.1,0.1,0.1v-4
		c0-0.3,0.3-0.6,0.6-0.6h4.9l0,0h6.3l0.6,4.1l0.3-0.4c1.8-2.8,5.4-4.5,9.6-4.5c3.1,0,5.9,1,8.3,2.9c4.1,3.3,6.1,8.3,6.1,14.9
		c0,6.8-2.1,11.9-6.1,15.2c-2.3,1.8-5.1,2.7-8.4,2.7c-3.8,0-7.2-1.3-8.9-3.3l-0.4-0.4V111h27.2c0.5,0,0.8,0.4,0.8,0.8
		s0.4,0.8,0.8,0.8h0.7c0.5,0,0.8-0.4,0.8-0.8v-0.7c0-0.5,0.4-0.8,0.8-0.8h0.8c0.2,0,0.4-0.1,0.6-0.2l3.1-3.1l0,0v0l0,0l0,0l0-4.4
		C246,102.1,245.6,101.8,245.1,101.8z M104,63.3l8.8,24.7l8.4-24.7h8.2l-12.4,34.1h-8.6L95.6,63.3H104z M68.4,106
		c0,0.4-0.3,0.7-0.7,0.7h-7.2c-0.4,0-0.7-0.3-0.7-0.7l0-1.1h8c0.4,0,0.7,0.3,0.7,0.7V106z M67,80.4c0-5.6,1.8-10.4,5-13.7
		c2.8-2.8,6.6-4.3,10.9-4.3c5.4,0,9.8,2.2,12.5,6.3c2.2,3.3,3.1,7,3,11.9c0,0-0.1,1.3-0.1,2.1H75.1l0,0.2c-0.1,2.7,0.9,5.3,2.6,6.9
		C79.2,91.3,81,92,83,92c2.5,0,4-0.5,5.2-1.7c0.8-0.8,1.4-1.7,1.7-2.9h7.6c-0.3,2-1.7,4.6-2.9,6c-2.6,3.1-6.7,4.8-11.5,4.8
		c-4.3,0-7.8-1.4-10.8-4.2C68.9,90.8,67,85.9,67,80.4z M123.7,107.7h-12.9v-1H75.3c-0.4,0-0.7-0.3-0.7-0.7l0-1.1l48.4,0
		c0.4,0,0.7,0.3,0.7,0.7V107.7z M157.6,80.6c0,0-0.1,1.3-0.1,2.1h-23.2l0,0.2c-0.1,2.7,0.9,5.3,2.6,6.9c1.5,1.4,3.3,2.2,5.3,2.2
		c2.5,0,4-0.5,5.2-1.7c0.8-0.8,1.4-1.7,1.7-2.9h7.6c-0.3,2-1.7,4.6-2.9,6c-2.6,3.1-6.7,4.8-11.5,4.8c-4.3,0-7.8-1.4-10.8-4.2
		c-3.4-3.3-5.3-8.1-5.3-13.7c0-5.6,1.8-10.4,5-13.7c2.8-2.8,6.6-4.3,10.9-4.3c5.4,0,9.8,2.2,12.5,6.3
		C156.9,72,157.8,75.6,157.6,80.6z M223.5,105c0,0.4-0.3,0.7-0.7,0.7h-2.1c-0.4,0-0.7-0.3-0.7-0.7v-1.2c0-0.4,0.3-0.7,0.7-0.7h2.1
		c0.4,0,0.7,0.3,0.7,0.7V105z M228.8,101.9c0,0.2-0.2,0.5-0.5,0.5h-2.6c-0.2,0-0.5-0.2-0.5-0.5v-0.6c0-0.2,0.2-0.5,0.5-0.5h2.6
		c0.2,0,0.5,0.2,0.5,0.5V101.9z"/>
	<rect x="263" y="88.6" transform="matrix(0.7071 -0.7071 0.7071 0.7071 13.479 214.1193)" class="st0" width="4.4" height="4.4"/>
	<path class="st0" d="M252.4,97.3l-2.9,2.9c-0.1,0.1-0.3,0.2-0.5,0.2h-0.6c-0.4,0-0.7,0.3-0.7,0.7v2.9h1.6c0.4,0,0.7-0.3,0.7-0.7
		v-0.5c0-0.4,0.3-0.7,0.7-0.7h7l3.4,3.4h3.9v-5.1h-9.4L252.4,97.3z"/>
</g>
<g>
	<path class="st1" d="M123.7,107.7v-2.1c0-0.4-0.3-0.7-0.7-0.7l-48.4,0l0,1.1c0,0.4,0.3,0.7,0.7,0.7h35.5v1H123.7z"/>
	<polygon class="st1" points="121.2,63.3 112.8,88 104,63.3 95.6,63.3 108.3,97.4 116.9,97.4 129.3,63.3 	"/>
	<path class="st1" d="M83.1,98.2c4.8,0,8.9-1.7,11.5-4.8c1.2-1.4,2.6-4,2.9-6h-7.6c-0.3,1.1-0.9,2.1-1.7,2.9C87,91.5,85.4,92,83,92
		c-2,0-3.7-0.7-5.3-2.2c-1.7-1.6-2.7-4.2-2.6-6.9l0-0.2h23.2c0-0.8,0.1-2.1,0.1-2.1c0.2-4.9-0.8-8.6-3-11.9
		c-2.7-4.1-7.1-6.3-12.5-6.3c-4.4,0-8.2,1.5-10.9,4.3c-3.2,3.2-5,8.1-5,13.7c0,5.6,1.9,10.4,5.3,13.7C75.3,96.9,78.8,98.2,83.1,98.2
		z M75,76.9c0.1-2.3,0.6-3.9,1.8-5.5c1.3-1.7,3.5-2.7,6-2.7c2.3,0,4.1,0.7,5.4,2.1c1.4,1.5,2.1,3.6,2.2,6.2l0,0.2H75L75,76.9z"/>
	<path class="st1" d="M59.7,106c0,0.4,0.3,0.7,0.7,0.7h7.2c0.4,0,0.7-0.3,0.7-0.7v-0.3c0-0.4-0.3-0.7-0.7-0.7h-8L59.7,106z"/>
	<polygon class="st1" points="219.1,56.8 201.9,56.8 201.9,56.8 	"/>
	<path class="st1" d="M168.2,97.8c1.4,0,1.8-0.1,2.9-0.3l0.5-0.1v-6.6c-0.1,0-0.2,0-0.3,0c-0.2,0-0.5,0-0.9,0
		c-2.9,0-3.5-1.3-3.5-3.5V56.8v-5.6h-8v37.4C159,94.6,162.2,97.8,168.2,97.8z"/>
	<path class="st1" d="M131.2,66.7c-3.2,3.2-5,8.1-5,13.7c0,5.6,1.9,10.4,5.3,13.7c3,2.8,6.5,4.2,10.8,4.2c4.8,0,8.9-1.7,11.5-4.8
		c1.2-1.4,2.6-4,2.9-6h-7.6c-0.3,1.1-0.9,2.1-1.7,2.9c-1.2,1.2-2.7,1.7-5.2,1.7c-2,0-3.7-0.7-5.3-2.2c-1.7-1.6-2.7-4.2-2.6-6.9
		l0-0.2h23.2c0-0.8,0.1-2.1,0.1-2.1c0.2-4.9-0.8-8.6-3-11.9c-2.7-4.1-7.1-6.3-12.5-6.3C137.8,62.4,134,63.9,131.2,66.7z M149.7,76.9
		l0,0.2h-15.4l0-0.2c0.1-2.3,0.6-3.9,1.8-5.5c1.3-1.7,3.5-2.7,6-2.7c2.3,0,4.1,0.7,5.4,2.1C148.9,72.2,149.6,74.3,149.7,76.9z"/>
	<path class="st1" d="M58,65.6c-1.3-1.5-4.3-3.2-8.9-3.2c-3.3,0-6.1,0.9-8.4,2.7c-4.1,3.3-6.1,8.5-6.1,15.2c0,6.6,2,11.6,6.1,14.9
		c1.6,1.3,4.4,2.9,8.4,2.9c4.2,0,7.8-1.7,9.6-4.5l0.3-0.4l0.6,4.1h6.8V51.3v-1.4h-8V66L58,65.6z M58.7,80.2c0,5.2-1.4,11.4-8.1,11.4
		c-2.3,0-4.3-1-5.8-2.8c-1.5-2-2.2-4.8-2.2-8.6c0-3.7,0.7-6.5,2.2-8.5c1.4-1.8,3.4-2.8,5.8-2.8C57.3,69,58.7,75.1,58.7,80.2z"/>
	<path class="st1" d="M228.3,102.4c0.2,0,0.5-0.2,0.5-0.5v-0.6c0-0.2-0.2-0.5-0.5-0.5h-2.6c-0.2,0-0.5,0.2-0.5,0.5v0.6
		c0,0.2,0.2,0.5,0.5,0.5H228.3z"/>
	<path class="st1" d="M222.8,105.7c0.4,0,0.7-0.3,0.7-0.7v-1.2c0-0.4-0.3-0.7-0.7-0.7h-2.1c-0.4,0-0.7,0.3-0.7,0.7v1.2
		c0,0.4,0.3,0.7,0.7,0.7H222.8z"/>
	<path class="st1" d="M210.6,94.9c1.7,2,5.1,3.3,8.9,3.3c3.3,0,6.1-0.9,8.4-2.7c4.1-3.3,6.1-8.5,6.1-15.2c0-6.6-2.1-11.6-6.1-14.9
		c-2.4-1.9-5.2-2.9-8.3-2.9c-4.2,0-7.8,1.7-9.6,4.5l-0.3,0.4l-0.6-4.1h-6.3l0,0h-4.9c-0.3,0-0.6,0.3-0.6,0.6v4c0,0-0.1-0.1-0.1-0.1
		c-2.1-2.6-6.4-5.3-12-5.3c-5.6,0-9.9,2.7-12,5.3c-2.8,3.5-4,7.3-4,12.6c0,5.3,1.2,9.1,4,12.6c2.1,2.6,6.4,5.3,12,5.3
		c5.6,0,9.9-2.7,12-5.3c2.8-3.5,4-7.3,4-12.6c0-3.6-0.6-6.5-1.8-9.1v-1.7c0-0.3,0.3-0.6,0.6-0.6h2.2V111h8V94.5L210.6,94.9z
		 M190.7,89.1c-1.4,1.4-3.3,2.3-5.4,2.3c-2.1,0-4.1-0.8-5.4-2.3c-2.3-2.5-2.5-6.2-2.5-8.8s0.3-6.4,2.5-8.8c1.4-1.4,3.3-2.3,5.4-2.3
		c2.1,0,4.1,0.8,5.4,2.3c2.3,2.5,2.5,6.2,2.5,8.8S193,86.7,190.7,89.1z M209.9,80.4c0-5.2,1.4-11.4,8.1-11.4c2.3,0,4.3,1,5.8,2.8
		c0.1,0.2,0.2,0.3,0.3,0.5h-4.3c-0.5,0-0.9,0.4-0.9,0.9v2c0,0.5,0.4,0.9,0.9,0.9h3.8c0.5,0,0.9,0.4,0.9,0.9v3.6
		c0,0.5,0.4,0.9,0.9,0.9h0.5c-0.1,3.1-0.9,5.5-2.2,7.3c-1.4,1.8-3.4,2.8-5.8,2.8C211.3,91.7,209.9,85.5,209.9,80.4z"/>
</g>
</svg>
