<?xml version="1.0" encoding="utf-8"?>
<!-- Generator: Adobe Illustrator 21.1.0, SVG Export Plug-In . SVG Version: 6.00 Build 0)  -->
<svg version="1.1" id="Layer_1" xmlns="http://www.w3.org/2000/svg" xmlns:xlink="http://www.w3.org/1999/xlink" x="0px" y="0px"
	 viewBox="0 0 289.9 161.7" style="enable-background:new 0 0 289.9 161.7;" xml:space="preserve">
<style type="text/css">
	.st0{fill:#F2F2F2;}
</style>
<path class="st0" d="M151.9,113.4h2.9v-3.1h-2.9V113.4z M161.5,113.4h2.9V106h-2.9V113.4z M128.3,117.2h6.1V114h-6.1V117.2z
	 M256.7,64.8h-7.2c-0.4,0-0.7,0.3-0.7,0.7v0.6c0,0.4,0.3,0.7,0.7,0.7h7.2c0.4,0,0.7-0.3,0.7-0.7v-0.6
	C257.5,65.1,257.1,64.8,256.7,64.8z M255.1,90.8l3.1,3.1l3.1-3.1l-3.1-3.1L255.1,90.8z M245.9,109.5h0.5c0.4,0,0.7-0.3,0.7-0.7v-2.4
	c0-0.4-0.3-0.7-0.7-0.7h-0.5c-0.4,0-0.7,0.3-0.7,0.7v2.4C245.2,109.2,245.5,109.5,245.9,109.5z M261.5,83.8v0.8
	c0,0.2,0.2,0.4,0.4,0.4h2c0.2,0,0.4-0.2,0.4-0.4v-0.8c0-0.2-0.2-0.4-0.4-0.4h-2C261.7,83.4,261.5,83.6,261.5,83.8z M242.5,100.3
	c-0.1,0.1-0.3,0.2-0.5,0.2h-0.6c-0.4,0-0.7,0.3-0.7,0.7v2.9h1.6c0.4,0,0.7-0.3,0.7-0.7v-0.5c0-0.4,0.3-0.7,0.7-0.7h7l3.4,3.4h3.9
	v-5.1h-9.4l-3.1-3.1L242.5,100.3z M234.5,100.9v-3c0-0.2-0.1-0.4-0.2-0.6l-1.1-1.1c-0.3-0.3-0.3-0.9,0-1.2l1.1-1.1
	c0.2-0.2,0.4-0.2,0.6-0.2h6.8c0.5,0,0.8-0.4,0.8-0.8v-9.4c0-0.5,0.4-0.8,0.8-0.8h9c0.5,0,0.8-0.4,0.8-0.8v-0.8
	c0-0.5,0.4-0.8,0.8-0.8h5.1c0.5,0,0.8-0.4,0.8-0.8v-3.7c0-0.5-0.4-0.8-0.8-0.8h-4.2c-0.2,0-0.5-0.1-0.6-0.3l-1.6-1.7
	c0,0-1-0.3-1,1.1v0c0,0.5-0.4,0.8-0.8,0.8h-6.9c-0.5,0-0.8-0.4-0.8-0.8v-1.3c0-0.5,0.4-0.8,0.8-0.8h3.7c0.5,0,0.8-0.4,0.8-0.8v-1.3
	c0-0.5-0.4-0.8-0.8-0.8h-8.9c-0.5,0-0.8-0.4-0.8-0.8v-4.1c0-0.2,0.1-0.4,0.2-0.5l1.3-1.7c0.2-0.2,0.4-0.3,0.7-0.3h4.4
	c0.2,0,0.5-0.1,0.6-0.3l1.8-2c0.1-0.2,0.2-0.4,0.2-0.6l0-3.8h-6.1c-0.2,0-0.5,0.1-0.6,0.3l-1.8,1.9c-0.2,0.2-0.4,0.3-0.6,0.3
	l-42.8,0c-0.5,0-0.8-0.4-0.8-0.8v-1.1c0-0.5,0.4-0.8,0.8-0.8h18.3c0.1,0,0.2,0,0.4-0.1l1.3-0.6c0.1-0.1,0.2-0.1,0.4-0.1h7.1
	c0.5,0,0.9-0.4,0.9-0.9v-1.1h-83.7c-0.2,0-0.4-0.1-0.5-0.2l-1.2-1c-0.2-0.1-0.3-0.2-0.5-0.2H26.3c-1.7,0-3,1.4-3,3v44.5
	c0,0.2,0.1,0.4,0.2,0.6l5.9,5.9c0.2,0.2,0.4,0.2,0.6,0.2h3.5c0.5,0,0.8,0.4,0.8,0.8v3.5c0,0.2,0.1,0.4,0.2,0.6l1.8,1.8
	c0.3,0.3,0.3,0.9,0,1.2l-1.1,1.1c-0.5,0.5-0.2,1.4,0.6,1.4h34.4c0.5,0,0.8-0.4,0.8-0.8V113c0-0.5,0.4-0.8,0.8-0.8h3.4
	c0.5,0,0.8,0.4,0.8,0.8v0.7c0,0.5,0.4,0.8,0.8,0.8h2.1c0.5,0,0.8-0.4,0.8-0.8v0c0-0.5,0.4-0.8,0.8-0.8h1.7c0.5,0,0.8,0.4,0.8,0.8v0
	c0,0.5,0.4,0.8,0.8,0.8h11.4c0.5,0,0.9-0.1,1.3-0.3l7.5-3.1c0.4-0.2,0.9-0.3,1.3-0.3l43.5,0c0.5,0,0.8-0.4,0.8-0.8v-2.2
	c0-0.5-0.4-0.8-0.8-0.8h-3c-0.5,0-0.8-0.4-0.8-0.8v-3h3.8c0.5,0,0.8,0.4,0.8,0.8v0.7c0,0.5,0.4,0.8,0.8,0.8h9.4
	c0.5,0,0.8-0.4,0.8-0.8v-2.3c0-0.5,0.4-0.8,0.8-0.8h5.8c0.5,0,0.8,0.4,0.8,0.8v1.9c0,0.5,0.4,0.8,0.8,0.8h3.5c0.5,0,0.8-0.4,0.8-0.8
	v-1.8c0-0.5,0.4-0.8,0.8-0.8l1.2,0c0.2,0,0.4,0.1,0.6,0.2l3.3,3.1c0.2,0.2,0.3,0.4,0.3,0.6v5.1h50.6c0.5,0,0.8,0.4,0.8,0.8l0,0
	c0,0.5,0.4,0.8,0.8,0.8h0.7c0.5,0,0.8-0.4,0.8-0.8v-0.7c0-0.5,0.4-0.8,0.8-0.8h0.8c0.2,0,0.4-0.1,0.6-0.2l3.1-3.1l0,0v0l0,0l0,0
	l0-4.2c0-0.5-0.4-0.8-0.8-0.8h-2.9C234.8,101.8,234.5,101.4,234.5,100.9z M83.9,80.1h2c0.6,0,1.1,0.5,1.1,1.1v0.4h-3V80.1z
	 M60.7,106.7h-7.2c-0.4,0-0.7-0.3-0.7-0.7l0-0.8h8c0.4,0,0.7,0.3,0.7,0.7v0.1C61.4,106.3,61.1,106.7,60.7,106.7z M78.4,110.5h-0.9
	c-0.4,0-0.7-0.3-0.7-0.7v-0.1c0-0.4,0.3-0.7,0.7-0.7h0.9c0.4,0,0.7,0.3,0.7,0.7v0.1C79.1,110.2,78.8,110.5,78.4,110.5z M119.6,107.7
	h-15.8v-1H68.3c-0.4,0-0.7-0.3-0.7-0.7l0-0.8H104v0h14.9c0.4,0,0.7,0.3,0.7,0.7V107.7z M135.2,107.7h-12.1c-0.4,0-0.7-0.3-0.7-0.7
	v-1.1c0-0.4,0.3-0.7,0.7-0.7h11.4c0.4,0,0.7,0.3,0.7,0.7V107.7z M160.4,101.8h-3.2c-0.4,0-0.6-0.3-0.6-0.6v-3.6
	c0-0.4,0.3-0.6,0.6-0.6h3.2c0.4,0,0.6,0.3,0.6,0.6v3.6C161.1,101.5,160.8,101.8,160.4,101.8z M188.5,82h-0.2c-0.4,0-0.7-0.3-0.7-0.7
	V68.2c0-0.4,0.3-0.7,0.7-0.7h0.2c0.4,0,0.7,0.3,0.7,0.7v13.1C189.2,81.7,188.9,82,188.5,82z M199.4,71.7h-4.1
	c-0.5,0-0.9,0.4-0.9,0.9v1c0,0.5-0.4,0.9-0.9,0.9h-1.4c-0.5,0-0.9-0.4-0.9-0.9v-9.4c0-0.5,0.4-0.9,0.9-0.9h7.3
	c0.5,0,0.9,0.4,0.9,0.9v6.7C200.3,71.3,199.9,71.7,199.4,71.7z M215.8,105.7h-2.1c-0.4,0-0.7-0.3-0.7-0.7v-1.2
	c0-0.4,0.3-0.7,0.7-0.7h2.1c0.4,0,0.7,0.3,0.7,0.7v1.2C216.5,105.4,216.2,105.7,215.8,105.7z M221.3,102.4h-2.6
	c-0.2,0-0.5-0.2-0.5-0.5v-0.6c0-0.2,0.2-0.5,0.5-0.5h2.6c0.2,0,0.5,0.2,0.5,0.5v0.6C221.8,102.2,221.6,102.4,221.3,102.4z
	 M224.6,76.1h-1v8.7c0,0.5-0.4,0.9-0.9,0.9h-1c-0.5,0-0.9-0.4-0.9-0.9v-2.3c0-0.5-0.4-0.9-0.9-0.9h-1.5c-0.5,0-0.9-0.4-0.9-0.9V77
	c0-0.5-0.4-0.9-0.9-0.9h-3.8c-0.5,0-0.9-0.4-0.9-0.9v-2c0-0.5,0.4-0.9,0.9-0.9h10.9c0.5,0,0.9,0.4,0.9,0.9V76.1z"/>
</svg>
